<mxfile host="app.diagrams.net" modified="2020-12-12T09:05:46.928Z" agent="5.0 (Windows NT 10.0; Win64; x64) AppleWebKit/537.36 (KHTML, like Gecko) Chrome/87.0.4280.88 Safari/537.36 Edg/87.0.664.57" etag="j6ngM0iHUNdNvZfAWIPz" version="13.10.4" type="github">
  <diagram id="Lmii-7XYJw4mNq-VUitA" name="Page-1">
    <mxGraphModel dx="1038" dy="508" grid="1" gridSize="10" guides="1" tooltips="1" connect="1" arrows="1" fold="1" page="1" pageScale="1" pageWidth="827" pageHeight="1169" math="0" shadow="0">
      <root>
        <mxCell id="0" />
        <mxCell id="1" parent="0" />
        <mxCell id="Kod1uHw_EbE88PVpClQo-3" value="" style="edgeStyle=orthogonalEdgeStyle;rounded=0;orthogonalLoop=1;jettySize=auto;html=1;exitX=0.333;exitY=1.01;exitDx=0;exitDy=0;exitPerimeter=0;" edge="1" parent="1" source="Kod1uHw_EbE88PVpClQo-1" target="Kod1uHw_EbE88PVpClQo-2">
          <mxGeometry relative="1" as="geometry" />
        </mxCell>
        <mxCell id="Kod1uHw_EbE88PVpClQo-7" style="edgeStyle=orthogonalEdgeStyle;rounded=0;orthogonalLoop=1;jettySize=auto;html=1;exitX=0.75;exitY=1;exitDx=0;exitDy=0;entryX=0.5;entryY=0;entryDx=0;entryDy=0;" edge="1" parent="1" source="Kod1uHw_EbE88PVpClQo-1" target="Kod1uHw_EbE88PVpClQo-5">
          <mxGeometry relative="1" as="geometry" />
        </mxCell>
        <mxCell id="Kod1uHw_EbE88PVpClQo-1" value="产品" style="rounded=0;whiteSpace=wrap;html=1;" vertex="1" parent="1">
          <mxGeometry x="90" y="200" width="120" height="60" as="geometry" />
        </mxCell>
        <mxCell id="Kod1uHw_EbE88PVpClQo-2" value="产品id" style="ellipse;whiteSpace=wrap;html=1;rounded=0;" vertex="1" parent="1">
          <mxGeometry y="320" width="120" height="80" as="geometry" />
        </mxCell>
        <mxCell id="Kod1uHw_EbE88PVpClQo-5" value="名称" style="ellipse;whiteSpace=wrap;html=1;" vertex="1" parent="1">
          <mxGeometry x="160" y="320" width="120" height="80" as="geometry" />
        </mxCell>
      </root>
    </mxGraphModel>
  </diagram>
</mxfile>
